<svg xmlns="http://www.w3.org/2000/svg" xmlns:xlink="http://www.w3.org/1999/xlink" version="1.1" x="0px" y="0px" viewBox="0 0 100 125" enable-background="new 0 0 100 100" xml:space="preserve"><polygon fill="#000000" points="42,78 36,78 36,76 32,76 32,74 30,74 30,72 28,72 28,70 26,70 26,68 24,68 24,64   22,64 22,58 20,58 20,42 22,42 22,36 24,36 24,32 26,32 26,30 28,30 28,28 30,28 30,26 32,26 32,24 36,24 36,22 42,22 42,20 58,20   58,18 42,18 42,20 36,20 36,22 32,22 32,24 30,24 30,26 28,26 28,28 26,28 26,30 24,30 24,32 22,32 22,36 20,36 20,42 18,42 18,58   20,58 20,64 22,64 22,68 24,68 24,70 26,70 26,72 28,72 28,74 30,74 30,76 32,76 32,78 36,78 36,80 38,80 42,80 42,82 58,82 58,80   64,80 64,78 68,78 68,76 70,76 70,74 72,74 72,72 74,72 74,70 76,70 76,68 78,68 78,64 80,64 80,58 82,58 82,42 80,42 80,36 78,36   78,32 76,32 76,30 74,30 74,28 72,28 72,26 70,26 70,24 68,24 68,22 64,22 64,20 58,20 58,22 64,22 64,24 68,24 68,26 70,26 70,28   72,28 72,30 74,30 74,32 76,32 76,36 78,36 78,42 80,42 80,58 78,58 78,64 76,64 76,68 74,68 74,70 72,70 72,72 70,72 70,74 68,74   68,76 64,76 64,78 58,78 58,80 42,80 "/><polygon fill="#000000" points="68,48 68,46 66,46 66,44 64,44 64,42 62,42 62,40 60,40 60,38 58,38 58,36 56,36 56,34 54,34 54,32   52,32 52,30 48,30 48,32 46,32 46,36 48,36 48,38 50,38 50,40 52,40 52,42 54,42 54,44 56,44 56,46 32,46 32,48 30,48 30,52 32,52   32,54 56,54 56,56 54,56 54,58 52,58 52,60 50,60 50,62 48,62 48,64 46,64 46,68 48,68 48,70 52,70 52,68 54,68 54,66 56,66 56,64   58,64 58,62 60,62 60,60 62,60 62,58 64,58 64,56 66,56 66,54 68,54 68,52 70,52 70,48 "/><text x="0" y="115" fill="#000000" font-size="5px" font-weight="bold" font-family="'Helvetica Neue', Helvetica, Arial-Unicode, Arial, Sans-serif">Created by Jamison Wieser</text><text x="0" y="120" fill="#000000" font-size="5px" font-weight="bold" font-family="'Helvetica Neue', Helvetica, Arial-Unicode, Arial, Sans-serif">from the Noun Project</text></svg>