<svg xmlns="http://www.w3.org/2000/svg" xmlns:xlink="http://www.w3.org/1999/xlink" version="1.1" x="0px" y="0px" viewBox="0 0 100 125" enable-background="new 0 0 100 100" xml:space="preserve"><path fill="#000000" d="M80,42v-6h-2v-4h-2v-2h-2v-2h-2v-2h-2v-2h-2v-2h-4v-2h-6v-2H42v2h-6v2h-4v2h-2v2h-2v2h-2v2h-2v2h-2v4h-2v6  h-2v16h2v6h2v4h2v2h2v2h2v2h2v2h2v2h4v2h6v2h16v-2h6v-2h4v-2h2v-2h2v-2h2v-2h2v-2h2v-4h2v-6h2V42H80z M70,52h-2v2h-2v2h-2v2h-2v2h-2  v2h-2v2h-2v2h-2v2h-2v2h-4v-2h-2v-4h2v-2h2v-2h2v-2h2v-2h2v-2H32v-2h-2v-4h2v-2h24v-2h-2v-2h-2v-2h-2v-2h-2v-2h-2v-4h2v-2h4v2h2v2h2  v2h2v2h2v2h2v2h2v2h2v2h2v2h2V52z"/><text x="0" y="115" fill="#000000" font-size="5px" font-weight="bold" font-family="'Helvetica Neue', Helvetica, Arial-Unicode, Arial, Sans-serif">Created by Jamison Wieser</text><text x="0" y="120" fill="#000000" font-size="5px" font-weight="bold" font-family="'Helvetica Neue', Helvetica, Arial-Unicode, Arial, Sans-serif">from the Noun Project</text></svg>