<svg xmlns="http://www.w3.org/2000/svg"  viewBox="0 0 32 32" width="32px" height="32px" baseProfile="basic"><polygon fill="#26659f" points="4,22 4,10 6,10 6,8 8,8 8,6 10,6 10,4 22,4 22,6 24,6 24,8 26,8 26,10 28,10 28,22 26,22 26,24 24,24 24,26 22,26 22,28 10,28 10,26 8,26 8,24 6,24 6,22"/><rect width="2" height="2" x="10" y="10" fill="#e6e5e5"/><rect width="2" height="8" x="10" y="14" fill="#e6e5e5"/><rect width="2" height="6" x="20" y="16" fill="#e6e5e5"/><rect width="2" height="2" x="18" y="14" fill="#e6e5e5"/><polygon fill="#e6e5e5" points="16,16 16,14 14,14 14,22 16,22 16,18 18,18 18,16"/></svg>